<svg width="490" height="44" viewBox="0 0 490 44" fill="none" xmlns="http://www.w3.org/2000/svg">
<mask id="path-1-inside-1_11_456" fill="white">
<path d="M0 0H490V44H0V0Z"/>
</mask>
<path d="M490 42H0V46H490V42Z" fill="url(#paint0_linear_11_456)" mask="url(#path-1-inside-1_11_456)"/>
<path d="M14.8284 19.8284C15.5786 19.0783 16 18.0609 16 17C16 15.9391 15.5786 14.9217 14.8284 14.1716C14.0783 13.4214 13.0609 13 12 13C10.9391 13 9.92172 13.4214 9.17157 14.1716C8.42143 14.9217 8 15.9391 8 17C8 18.0609 8.42143 19.0783 9.17157 19.8284C9.92172 20.5786 10.9391 21 12 21C13.0609 21 14.0783 20.5786 14.8284 19.8284Z" stroke="#808285" stroke-width="2" stroke-linecap="round" stroke-linejoin="round"/>
<path d="M7.05025 26.0503C8.36301 24.7375 10.1435 24 12 24C13.8565 24 15.637 24.7375 16.9497 26.0503C18.2625 27.363 19 29.1435 19 31H5C5 29.1435 5.7375 27.363 7.05025 26.0503Z" stroke="#808285" stroke-width="2" stroke-linecap="round" stroke-linejoin="round"/>
<path d="M43.9 28V18.838L35.548 28.54V15.994H36.88V25.192L45.232 15.49V28H43.9ZM47.1393 28L48.9393 19.954L52.0353 26.038L55.0593 19.954L56.8593 28H55.5273L54.5373 23.374L51.9993 28.522L49.4253 23.374L48.4713 28H47.1393ZM57.5807 28L59.9027 24.922C59.8307 24.922 59.7287 24.91 59.5967 24.886C59.4767 24.862 59.2967 24.802 59.0567 24.706C58.8167 24.61 58.6187 24.484 58.4627 24.328C58.0667 23.956 57.8687 23.458 57.8687 22.834C57.8687 22.126 58.0907 21.568 58.5347 21.16C58.9787 20.74 59.7107 20.53 60.7307 20.53H63.3407V28H62.0447V24.994H61.2527L59.1287 28H57.5807ZM62.0447 23.914V21.682H60.8387C60.2747 21.682 59.8847 21.748 59.6687 21.88C59.3567 22.084 59.2007 22.39 59.2007 22.798C59.2007 23.206 59.3567 23.506 59.6687 23.698C59.8967 23.842 60.2807 23.914 60.8207 23.914H62.0447Z" fill="#808285"/>
<defs>
<linearGradient id="paint0_linear_11_456" x1="245" y1="0" x2="245" y2="44" gradientUnits="userSpaceOnUse">
<stop stop-color="#E8C87E"/>
<stop offset="1" stop-color="#AB8447"/>
</linearGradient>
</defs>
</svg>
