<svg width="490" height="44" viewBox="0 0 490 44" fill="none" xmlns="http://www.w3.org/2000/svg">
<mask id="path-1-inside-1_11_475" fill="white">
<path d="M0 0H490V44H0V0Z"/>
</mask>
<path d="M490 42H0V46H490V42Z" fill="url(#paint0_linear_11_475)" mask="url(#path-1-inside-1_11_475)"/>
<path d="M3 18L10.89 23.26C11.2187 23.4793 11.6049 23.5963 12 23.5963C12.3951 23.5963 12.7813 23.4793 13.11 23.26L21 18M5 29H19C19.5304 29 20.0391 28.7893 20.4142 28.4142C20.7893 28.0391 21 27.5304 21 27V17C21 16.4696 20.7893 15.9609 20.4142 15.5858C20.0391 15.2107 19.5304 15 19 15H5C4.46957 15 3.96086 15.2107 3.58579 15.5858C3.21071 15.9609 3 16.4696 3 17V27C3 27.5304 3.21071 28.0391 3.58579 28.4142C3.96086 28.7893 4.46957 29 5 29Z" stroke="#808285" stroke-width="2" stroke-linecap="round" stroke-linejoin="round"/>
<path d="M44.728 16.984V18.64C44.248 18.16 43.726 17.788 43.162 17.524C42.478 17.212 41.788 17.056 41.092 17.056C39.712 17.056 38.56 17.542 37.636 18.514C36.724 19.474 36.268 20.656 36.268 22.06C36.268 23.572 36.766 24.766 37.762 25.642C38.77 26.518 39.886 26.956 41.11 26.956C41.878 26.956 42.622 26.77 43.342 26.398C43.846 26.146 44.308 25.81 44.728 25.39V27.046C43.636 27.826 42.43 28.216 41.11 28.216C39.334 28.216 37.852 27.622 36.664 26.434C35.488 25.246 34.9 23.782 34.9 22.042C34.9 20.254 35.494 18.766 36.682 17.578C37.882 16.39 39.382 15.796 41.182 15.796C42.502 15.796 43.684 16.192 44.728 16.984ZM53.1787 27.1C52.4347 27.844 51.4927 28.216 50.3527 28.216C49.2127 28.216 48.2647 27.844 47.5087 27.1C46.7647 26.356 46.3927 25.42 46.3927 24.292C46.3927 23.152 46.7647 22.21 47.5087 21.466C48.2647 20.722 49.2127 20.35 50.3527 20.35C51.4927 20.35 52.4347 20.722 53.1787 21.466C53.9347 22.21 54.3127 23.152 54.3127 24.292C54.3127 25.42 53.9347 26.356 53.1787 27.1ZM52.2067 22.24C51.7027 21.748 51.0847 21.502 50.3527 21.502C49.6207 21.502 48.9967 21.754 48.4807 22.258C47.9767 22.75 47.7247 23.428 47.7247 24.292C47.7247 25.156 47.9827 25.834 48.4987 26.326C49.0147 26.818 49.6327 27.064 50.3527 27.064C51.0727 27.064 51.6907 26.818 52.2067 26.326C52.7227 25.834 52.9807 25.156 52.9807 24.292C52.9807 23.416 52.7227 22.732 52.2067 22.24ZM62.6182 27.1C61.8742 27.844 60.9322 28.216 59.7922 28.216C58.6522 28.216 57.7042 27.844 56.9482 27.1C56.2042 26.356 55.8322 25.42 55.8322 24.292C55.8322 23.152 56.2042 22.21 56.9482 21.466C57.7042 20.722 58.6522 20.35 59.7922 20.35C60.9322 20.35 61.8742 20.722 62.6182 21.466C63.3742 22.21 63.7522 23.152 63.7522 24.292C63.7522 25.42 63.3742 26.356 62.6182 27.1ZM61.6462 22.24C61.1422 21.748 60.5242 21.502 59.7922 21.502C59.0602 21.502 58.4362 21.754 57.9202 22.258C57.4162 22.75 57.1642 23.428 57.1642 24.292C57.1642 25.156 57.4222 25.834 57.9382 26.326C58.4542 26.818 59.0722 27.064 59.7922 27.064C60.5122 27.064 61.1302 26.818 61.6462 26.326C62.1622 25.834 62.4202 25.156 62.4202 24.292C62.4202 23.416 62.1622 22.732 61.6462 22.24ZM71.4996 15.4H72.9396C72.8076 15.844 72.5796 16.222 72.2556 16.534C71.9436 16.834 71.6556 17.038 71.3916 17.146C71.1396 17.254 70.8396 17.35 70.4916 17.434C70.4316 17.446 70.2876 17.482 70.0596 17.542C69.8316 17.59 69.6576 17.632 69.5376 17.668C69.4176 17.704 69.2616 17.752 69.0696 17.812C68.8776 17.872 68.7036 17.944 68.5476 18.028C68.3916 18.112 68.2476 18.202 68.1156 18.298C67.6596 18.646 67.2876 19.132 66.9996 19.756C66.7236 20.368 66.5736 21.022 66.5496 21.718H66.5856C67.1256 20.806 68.0316 20.35 69.3036 20.35C70.4196 20.35 71.3436 20.728 72.0756 21.484C72.8196 22.24 73.1916 23.176 73.1916 24.292C73.1916 25.42 72.8136 26.356 72.0576 27.1C71.3016 27.844 70.3176 28.216 69.1056 28.216C68.0616 28.216 67.2036 27.904 66.5316 27.28C65.6916 26.512 65.2716 25.228 65.2716 23.428C65.2716 20.296 65.9796 18.244 67.3956 17.272C67.5036 17.2 67.6176 17.134 67.7376 17.074C67.8576 17.002 67.9836 16.942 68.1156 16.894C68.2596 16.834 68.3796 16.786 68.4756 16.75C68.5716 16.702 68.7036 16.66 68.8716 16.624C69.0516 16.576 69.1716 16.546 69.2316 16.534C69.3036 16.51 69.4356 16.48 69.6276 16.444C69.8316 16.396 69.9576 16.366 70.0056 16.354C70.4856 16.246 70.8336 16.12 71.0496 15.976C71.2656 15.82 71.4156 15.628 71.4996 15.4ZM71.0856 22.24C70.5816 21.748 69.9636 21.502 69.2316 21.502C68.4996 21.502 67.8756 21.754 67.3596 22.258C66.8556 22.75 66.6036 23.428 66.6036 24.292C66.6036 25.156 66.8616 25.834 67.3776 26.326C67.8936 26.818 68.5116 27.064 69.2316 27.064C69.9516 27.064 70.5696 26.818 71.0856 26.326C71.6016 25.834 71.8596 25.156 71.8596 24.292C71.8596 23.416 71.6016 22.732 71.0856 22.24ZM75.1791 28V20.53H76.4751V26.812H79.3551V20.53H80.6511V26.812H83.5311V20.53H84.8271V26.812H86.0511V29.98H84.8631V28H75.1791ZM92.9575 25.498L94.0375 26.092C93.7855 26.572 93.4795 26.974 93.1195 27.298C92.4355 27.91 91.6075 28.216 90.6355 28.216C89.6275 28.216 88.7575 27.892 88.0255 27.244C87.3055 26.584 86.9455 25.606 86.9455 24.31C86.9455 23.17 87.2695 22.228 87.9175 21.484C88.5775 20.728 89.4595 20.35 90.5635 20.35C91.8115 20.35 92.7535 20.806 93.3895 21.718C93.8935 22.438 94.1275 23.374 94.0915 24.526H88.2775C88.2895 25.282 88.5235 25.894 88.9795 26.362C89.4355 26.83 89.9935 27.064 90.6535 27.064C91.2415 27.064 91.7515 26.884 92.1835 26.524C92.5195 26.236 92.7775 25.894 92.9575 25.498ZM88.3675 23.446H92.7595C92.6515 22.858 92.3935 22.39 91.9855 22.042C91.5895 21.682 91.1155 21.502 90.5635 21.502C90.0235 21.502 89.5435 21.688 89.1235 22.06C88.7155 22.42 88.4635 22.882 88.3675 23.446ZM96.0795 28V20.53H97.3755V23.59H100.903V20.53H102.199V28H100.903V24.778H97.3755V28H96.0795ZM104.64 20.53H105.936V25.462L111.048 19.954V28H109.752V23.014L104.64 28.522V20.53ZM119.043 25.498L120.123 26.092C119.871 26.572 119.565 26.974 119.205 27.298C118.521 27.91 117.693 28.216 116.721 28.216C115.713 28.216 114.843 27.892 114.111 27.244C113.391 26.584 113.031 25.606 113.031 24.31C113.031 23.17 113.355 22.228 114.003 21.484C114.663 20.728 115.545 20.35 116.649 20.35C117.897 20.35 118.839 20.806 119.475 21.718C119.979 22.438 120.213 23.374 120.177 24.526H114.363C114.375 25.282 114.609 25.894 115.065 26.362C115.521 26.83 116.079 27.064 116.739 27.064C117.327 27.064 117.837 26.884 118.269 26.524C118.605 26.236 118.863 25.894 119.043 25.498ZM114.453 23.446H118.845C118.737 22.858 118.479 22.39 118.071 22.042C117.675 21.682 117.201 21.502 116.649 21.502C116.109 21.502 115.629 21.688 115.209 22.06C114.801 22.42 114.549 22.882 114.453 23.446Z" fill="#808285"/>
<defs>
<linearGradient id="paint0_linear_11_475" x1="245" y1="0" x2="245" y2="44" gradientUnits="userSpaceOnUse">
<stop stop-color="#E8C87E"/>
<stop offset="1" stop-color="#AB8447"/>
</linearGradient>
</defs>
</svg>
