<svg width="490" height="44" viewBox="0 0 490 44" fill="none" xmlns="http://www.w3.org/2000/svg">
<mask id="path-1-inside-1_11_479" fill="white">
<path d="M0 0H490V44H0V0Z"/>
</mask>
<path d="M490 42H0V46H490V42Z" fill="url(#paint0_linear_11_479)" mask="url(#path-1-inside-1_11_479)"/>
<path d="M3.58579 13.5858C3.21071 13.9609 3 14.4696 3 15V16C3 24.284 9.716 31 18 31H19C19.5304 31 20.0391 30.7893 20.4142 30.4142C20.7893 30.0391 21 29.5304 21 29V25.721C21.0001 25.511 20.934 25.3064 20.8112 25.136C20.6885 24.9657 20.5152 24.8383 20.316 24.772L15.823 23.274C15.5947 23.1981 15.3466 23.2071 15.1244 23.2993C14.9021 23.3915 14.7205 23.5607 14.613 23.776L13.483 26.033C11.0345 24.9267 9.07332 22.9655 7.967 20.517L10.224 19.387C10.4393 19.2795 10.6085 19.0979 10.7007 18.8756C10.7929 18.6534 10.8019 18.4053 10.726 18.177L9.228 13.684C9.16171 13.485 9.03449 13.3118 8.86436 13.189C8.69422 13.0663 8.48979 13.0002 8.28 13H5C4.46957 13 3.96086 13.2107 3.58579 13.5858Z" stroke="#808285" stroke-width="2" stroke-linecap="round" stroke-linejoin="round"/>
<path d="M41.416 17.254H38.5V28H37.168V17.254H34.252V15.994H41.416V17.254ZM47.3246 25.498L48.4046 26.092C48.1526 26.572 47.8466 26.974 47.4866 27.298C46.8026 27.91 45.9746 28.216 45.0026 28.216C43.9946 28.216 43.1246 27.892 42.3926 27.244C41.6726 26.584 41.3126 25.606 41.3126 24.31C41.3126 23.17 41.6366 22.228 42.2846 21.484C42.9446 20.728 43.8266 20.35 44.9306 20.35C46.1786 20.35 47.1206 20.806 47.7566 21.718C48.2606 22.438 48.4946 23.374 48.4586 24.526H42.6446C42.6566 25.282 42.8906 25.894 43.3466 26.362C43.8026 26.83 44.3606 27.064 45.0206 27.064C45.6086 27.064 46.1186 26.884 46.5506 26.524C46.8866 26.236 47.1446 25.894 47.3246 25.498ZM42.7346 23.446H47.1266C47.0186 22.858 46.7606 22.39 46.3526 22.042C45.9566 21.682 45.4826 21.502 44.9306 21.502C44.3906 21.502 43.9106 21.688 43.4906 22.06C43.0826 22.42 42.8306 22.882 42.7346 23.446ZM56.0987 20.53V28H54.8027V21.718H52.1387V25.084C52.1387 26.056 51.9467 26.776 51.5627 27.244C51.1307 27.772 50.5307 28.036 49.7627 28.036C49.6667 28.036 49.5347 28.024 49.3667 28V26.812C49.4867 26.836 49.5827 26.848 49.6547 26.848C50.0747 26.848 50.3867 26.686 50.5907 26.362C50.7587 26.098 50.8427 25.672 50.8427 25.084V20.53H56.0987ZM64.0942 25.498L65.1742 26.092C64.9222 26.572 64.6162 26.974 64.2562 27.298C63.5722 27.91 62.7442 28.216 61.7722 28.216C60.7642 28.216 59.8942 27.892 59.1622 27.244C58.4422 26.584 58.0822 25.606 58.0822 24.31C58.0822 23.17 58.4062 22.228 59.0542 21.484C59.7142 20.728 60.5962 20.35 61.7002 20.35C62.9482 20.35 63.8902 20.806 64.5262 21.718C65.0302 22.438 65.2642 23.374 65.2282 24.526H59.4142C59.4262 25.282 59.6602 25.894 60.1162 26.362C60.5722 26.83 61.1302 27.064 61.7902 27.064C62.3782 27.064 62.8882 26.884 63.3202 26.524C63.6562 26.236 63.9142 25.894 64.0942 25.498ZM59.5042 23.446H63.8962C63.7882 22.858 63.5302 22.39 63.1222 22.042C62.7262 21.682 62.2522 21.502 61.7002 21.502C61.1602 21.502 60.6802 21.688 60.2602 22.06C59.8522 22.42 59.6002 22.882 59.5042 23.446ZM71.1942 32.14V28.126C69.8862 28.126 68.8362 27.802 68.0442 27.154C67.1802 26.458 66.7482 25.492 66.7482 24.256C66.7482 23.032 67.1742 22.072 68.0262 21.376C68.7942 20.728 69.8502 20.404 71.1942 20.404V15.994H72.4902V20.404C73.8342 20.404 74.8902 20.728 75.6582 21.376C76.5102 22.072 76.9362 23.032 76.9362 24.256C76.9362 25.492 76.5042 26.458 75.6402 27.154C74.8482 27.802 73.7982 28.126 72.4902 28.126V32.14H71.1942ZM71.1942 26.974V21.556C70.3422 21.556 69.6762 21.712 69.1962 22.024C68.4522 22.492 68.0802 23.236 68.0802 24.256C68.0802 25.216 68.4282 25.942 69.1242 26.434C69.6282 26.794 70.3182 26.974 71.1942 26.974ZM72.4902 21.556V26.974C73.3662 26.974 74.0562 26.794 74.5602 26.434C75.2562 25.942 75.6042 25.216 75.6042 24.256C75.6042 23.236 75.2322 22.492 74.4882 22.024C74.0082 21.712 73.3422 21.556 72.4902 21.556ZM85.2412 27.1C84.4972 27.844 83.5552 28.216 82.4152 28.216C81.2752 28.216 80.3272 27.844 79.5712 27.1C78.8272 26.356 78.4552 25.42 78.4552 24.292C78.4552 23.152 78.8272 22.21 79.5712 21.466C80.3272 20.722 81.2752 20.35 82.4152 20.35C83.5552 20.35 84.4972 20.722 85.2412 21.466C85.9972 22.21 86.3752 23.152 86.3752 24.292C86.3752 25.42 85.9972 26.356 85.2412 27.1ZM84.2692 22.24C83.7652 21.748 83.1472 21.502 82.4152 21.502C81.6832 21.502 81.0592 21.754 80.5432 22.258C80.0392 22.75 79.7872 23.428 79.7872 24.292C79.7872 25.156 80.0452 25.834 80.5612 26.326C81.0772 26.818 81.6952 27.064 82.4152 27.064C83.1352 27.064 83.7532 26.818 84.2692 26.326C84.7852 25.834 85.0432 25.156 85.0432 24.292C85.0432 23.416 84.7852 22.732 84.2692 22.24ZM88.3627 28V20.53H89.6587V23.59H93.1867V20.53H94.4827V28H93.1867V24.778H89.6587V28H88.3627Z" fill="#808285"/>
<defs>
<linearGradient id="paint0_linear_11_479" x1="245" y1="0" x2="245" y2="44" gradientUnits="userSpaceOnUse">
<stop stop-color="#E8C87E"/>
<stop offset="1" stop-color="#AB8447"/>
</linearGradient>
</defs>
</svg>
