<svg width="40" height="41" viewBox="0 0 40 41" fill="none" xmlns="http://www.w3.org/2000/svg">
<path d="M6.66669 12.1667V28.8333C6.66669 32.5167 12.6367 35.5 20 35.5C27.3634 35.5 33.3334 32.5167 33.3334 28.8333V12.1667M6.66669 12.1667C6.66669 15.85 12.6367 18.8333 20 18.8333C27.3634 18.8333 33.3334 15.85 33.3334 12.1667M6.66669 12.1667C6.66669 8.48333 12.6367 5.5 20 5.5C27.3634 5.5 33.3334 8.48333 33.3334 12.1667M33.3334 20.5C33.3334 24.1833 27.3634 27.1667 20 27.1667C12.6367 27.1667 6.66669 24.1833 6.66669 20.5" stroke="url(#paint0_linear_1932_70)" stroke-width="3" stroke-linecap="round" stroke-linejoin="round"/>
<defs>
<linearGradient id="paint0_linear_1932_70" x1="20" y1="5.5" x2="20" y2="35.5" gradientUnits="userSpaceOnUse">
<stop stop-color="#E8C87E"/>
<stop offset="1" stop-color="#AB8447"/>
</linearGradient>
</defs>
</svg>
