<svg width="120" height="21" viewBox="0 0 120 21" fill="none" xmlns="http://www.w3.org/2000/svg">
<path d="M8.53317 1.61166C8.99486 0.129448 11.0051 0.129447 11.4668 1.61166L12.7702 5.79586C12.9767 6.45872 13.5688 6.90752 14.237 6.90752H18.4547C19.9488 6.90752 20.57 8.90182 19.3613 9.81787L15.9491 12.4039C15.4085 12.8135 15.1823 13.5397 15.3888 14.2025L16.6921 18.3868C17.1538 19.869 15.5275 21.1015 14.3188 20.1855L10.9066 17.5995C10.366 17.1898 9.63401 17.1898 9.09345 17.5995L5.68125 20.1855C4.47251 21.1015 2.84616 19.869 3.30786 18.3868L4.6112 14.2025C4.81768 13.5397 4.59149 12.8135 4.05092 12.4039L0.638724 9.81787C-0.570013 8.90182 0.051194 6.90752 1.54528 6.90752H5.76299C6.43116 6.90752 7.02334 6.45872 7.22982 5.79586L8.53317 1.61166Z" fill="url(#paint0_linear_1932_160)"/>
<path d="M33.5332 1.61166C33.9949 0.129448 36.0051 0.129447 36.4668 1.61166L37.7702 5.79586C37.9767 6.45872 38.5688 6.90752 39.237 6.90752H43.4547C44.9488 6.90752 45.57 8.90182 44.3613 9.81787L40.9491 12.4039C40.4085 12.8135 40.1823 13.5397 40.3888 14.2025L41.6921 18.3868C42.1538 19.869 40.5275 21.1015 39.3188 20.1855L35.9066 17.5995C35.366 17.1898 34.634 17.1898 34.0934 17.5995L30.6812 20.1855C29.4725 21.1015 27.8462 19.869 28.3079 18.3868L29.6112 14.2025C29.8177 13.5397 29.5915 12.8135 29.0509 12.4039L25.6387 9.81787C24.43 8.90182 25.0512 6.90752 26.5453 6.90752H30.763C31.4312 6.90752 32.0233 6.45872 32.2298 5.79586L33.5332 1.61166Z" fill="url(#paint1_linear_1932_160)"/>
<path d="M58.5332 1.61166C58.9949 0.129448 61.0051 0.129447 61.4668 1.61166L62.7702 5.79586C62.9767 6.45872 63.5688 6.90752 64.237 6.90752H68.4547C69.9488 6.90752 70.57 8.90182 69.3613 9.81787L65.9491 12.4039C65.4085 12.8135 65.1823 13.5397 65.3888 14.2025L66.6921 18.3868C67.1538 19.869 65.5275 21.1015 64.3188 20.1855L60.9066 17.5995C60.366 17.1898 59.634 17.1898 59.0934 17.5995L55.6812 20.1855C54.4725 21.1015 52.8462 19.869 53.3079 18.3868L54.6112 14.2025C54.8177 13.5397 54.5915 12.8135 54.0509 12.4039L50.6387 9.81787C49.43 8.90182 50.0512 6.90752 51.5453 6.90752H55.763C56.4312 6.90752 57.0233 6.45872 57.2298 5.79586L58.5332 1.61166Z" fill="url(#paint2_linear_1932_160)"/>
<path d="M83.5332 1.61166C83.9949 0.129448 86.0051 0.129447 86.4668 1.61166L87.7702 5.79586C87.9767 6.45872 88.5688 6.90752 89.237 6.90752H93.4547C94.9488 6.90752 95.57 8.90182 94.3613 9.81787L90.9491 12.4039C90.4085 12.8135 90.1823 13.5397 90.3888 14.2025L91.6921 18.3868C92.1538 19.869 90.5275 21.1015 89.3188 20.1855L85.9066 17.5995C85.366 17.1898 84.634 17.1898 84.0934 17.5995L80.6812 20.1855C79.4725 21.1015 77.8462 19.869 78.3079 18.3868L79.6112 14.2025C79.8177 13.5397 79.5915 12.8135 79.0509 12.4039L75.6387 9.81787C74.43 8.90182 75.0512 6.90752 76.5453 6.90752H80.763C81.4312 6.90752 82.0233 6.45872 82.2298 5.79586L83.5332 1.61166Z" fill="url(#paint3_linear_1932_160)"/>
<path d="M109.488 1.90918C109.648 1.39774 110.259 1.36576 110.475 1.81348L110.512 1.90918L111.815 6.09277C112.145 7.15106 113.108 7.90723 114.237 7.90723H118.455C118.693 7.90737 118.883 8.04904 118.967 8.31641C119.04 8.55285 118.994 8.786 118.833 8.95312L118.757 9.02051L115.345 11.6064C114.513 12.2367 114.153 13.3037 114.381 14.3018L114.434 14.5L115.737 18.6846C115.833 18.9912 115.72 19.2434 115.528 19.3887C115.366 19.5117 115.182 19.5393 115 19.4395L114.923 19.3887L111.511 16.8027C110.669 16.1649 109.539 16.1244 108.661 16.6826L108.489 16.8027L105.077 19.3887C104.871 19.5449 104.657 19.5292 104.472 19.3887C104.304 19.2616 104.197 19.0525 104.236 18.7969L104.263 18.6846L105.566 14.5C105.874 13.5133 105.583 12.4243 104.814 11.7383L104.655 11.6064L101.243 9.02051C101.022 8.85261 100.949 8.58665 101.033 8.31641C101.117 8.04904 101.307 7.90737 101.545 7.90723H105.763C106.821 7.90723 107.734 7.24307 108.115 6.28809L108.185 6.09277L109.488 1.90918Z" stroke="url(#paint4_linear_1932_160)" stroke-width="2"/>
<defs>
<linearGradient id="paint0_linear_1932_160" x1="10" y1="0.5" x2="10" y2="20.5" gradientUnits="userSpaceOnUse">
<stop stop-color="#E8C87E"/>
<stop offset="1" stop-color="#AB8447"/>
</linearGradient>
<linearGradient id="paint1_linear_1932_160" x1="35" y1="0.5" x2="35" y2="20.5" gradientUnits="userSpaceOnUse">
<stop stop-color="#E8C87E"/>
<stop offset="1" stop-color="#AB8447"/>
</linearGradient>
<linearGradient id="paint2_linear_1932_160" x1="60" y1="0.5" x2="60" y2="20.5" gradientUnits="userSpaceOnUse">
<stop stop-color="#E8C87E"/>
<stop offset="1" stop-color="#AB8447"/>
</linearGradient>
<linearGradient id="paint3_linear_1932_160" x1="85" y1="0.5" x2="85" y2="20.5" gradientUnits="userSpaceOnUse">
<stop stop-color="#E8C87E"/>
<stop offset="1" stop-color="#AB8447"/>
</linearGradient>
<linearGradient id="paint4_linear_1932_160" x1="110" y1="0.5" x2="110" y2="20.5" gradientUnits="userSpaceOnUse">
<stop stop-color="#E8C87E"/>
<stop offset="1" stop-color="#AB8447"/>
</linearGradient>
</defs>
</svg>
