<svg width="40" height="40" viewBox="0 0 40 40" fill="none" xmlns="http://www.w3.org/2000/svg">
<path d="M35.8203 14.1406C36.8327 14.1406 37.6562 13.317 37.6562 12.3047V12.1875H37.8516C39.0362 12.1875 40 11.2238 40 10.0391V5.35156C40 4.16688 39.0362 3.20312 37.8516 3.20312H37.6562V3.08594C37.6562 2.07359 36.8327 1.25 35.8203 1.25H16.9141C16.1502 1.25 15.4989 1.73992 15.257 2.42188H13.3984C12.6345 2.42188 11.9829 2.91172 11.741 3.59375H7.53906C7.44836 3.59453 7.35844 3.6157 7.27703 3.65562L5.36516 4.61156C4.89898 4.84461 4.60938 5.3132 4.60938 5.83437V7.10938H0.585938C0.262266 7.10938 0 7.37172 0 7.69531C0 8.01891 0.262266 8.28125 0.585938 8.28125H4.60938V9.55625C4.60938 10.0774 4.89898 10.546 5.36516 10.7791L7.27703 11.735C7.35898 11.7748 7.44914 11.7965 7.54031 11.7969H11.7415C11.9834 12.4788 12.6347 12.9688 13.3985 12.9688H15.2571C15.499 13.6507 16.1503 14.1406 16.9141 14.1406H17.8125V17.9297C17.8125 18.899 18.6011 19.6875 19.5703 19.6875H20.1562V20.2734C20.1562 21.0273 20.7696 21.6406 21.5234 21.6406H22.6766C23.4505 21.6406 24.1251 22.1372 24.355 22.8763L25.9105 27.8763C26.0783 28.4155 25.9825 28.9857 25.6477 29.4405C25.3129 29.8954 24.7969 30.1562 24.2321 30.1562H23.074C21.8959 30.1562 20.9375 31.1147 20.9375 32.2927V32.5H17.3047C16.1201 32.5 15.1562 33.4637 15.1562 34.6484V36.6016C15.1562 37.7863 16.1201 38.75 17.3047 38.75H37.8516C39.0362 38.75 40 37.7863 40 36.6016V34.6484C40 33.4637 39.0362 32.5 37.8516 32.5H37.4219V32.2927C37.4219 31.1147 36.4634 30.1562 35.2854 30.1562C34.8539 30.1562 34.4787 29.8791 34.352 29.4667L32.5006 23.4452C31.9818 21.758 31.7188 20.0075 31.7188 18.2422C31.7188 15.9805 33.5588 14.1406 35.8203 14.1406ZM37.8516 4.375C38.3901 4.375 38.8281 4.81305 38.8281 5.35156V10.0391C38.8281 10.5776 38.3901 11.0156 37.8516 11.0156H37.6562V4.375H37.8516ZM5.78125 9.55625V5.83437C5.78125 5.75992 5.82258 5.69297 5.8893 5.65969L6.95312 5.12773V10.2628L5.8893 9.73086C5.82258 9.69758 5.78125 9.6307 5.78125 9.55625ZM12.8125 11.2109V6.91406C12.8125 6.59047 12.5502 6.32812 12.2266 6.32812C11.9029 6.32812 11.6406 6.59047 11.6406 6.91406V10.625H8.125V4.76562H12.2266C12.5502 4.76562 12.8125 4.50328 12.8125 4.17969C12.8125 3.85656 13.0753 3.59375 13.3984 3.59375H15.1562V11.7969H13.3984C13.0753 11.7969 12.8125 11.5341 12.8125 11.2109ZM19.5703 18.5156C19.2472 18.5156 18.9844 18.2528 18.9844 17.9297V14.1406H19.5703C19.8934 14.1406 20.1562 14.4034 20.1562 14.7266V18.5156H19.5703ZM30.5469 18.2422C30.5469 20.1244 30.8273 21.9908 31.3805 23.7896L33.2318 29.8111C33.5108 30.7185 34.3361 31.3281 35.2854 31.3281C35.8173 31.3281 36.25 31.7609 36.25 32.2927V32.5H34.6552C34.3315 32.5 34.0692 32.7623 34.0692 33.0859C34.0692 33.4095 34.3315 33.6719 34.6552 33.6719H37.8516C38.3901 33.6719 38.8281 34.1099 38.8281 34.6484V36.6016C38.8281 37.1401 38.3901 37.5781 37.8516 37.5781H17.3047C16.7662 37.5781 16.3281 37.1401 16.3281 36.6016V34.6484C16.3281 34.1099 16.7662 33.6719 17.3047 33.6719H31.9208C32.2445 33.6719 32.5067 33.4095 32.5067 33.0859C32.5067 32.7623 32.2445 32.5 31.9208 32.5H22.1094V32.2927C22.1094 31.7609 22.5421 31.3281 23.074 31.3281H24.2321C25.1734 31.3281 26.0334 30.8934 26.5914 30.1352C27.1495 29.3772 27.3092 28.4269 27.0295 27.528L25.4739 22.528C25.0907 21.2963 23.9665 20.4688 22.6766 20.4688H21.5234C21.4157 20.4688 21.3281 20.3811 21.3281 20.2734V14.7266C21.3281 13.7573 20.5395 12.9688 19.5703 12.9688H16.9141C16.5909 12.9688 16.3281 12.7059 16.3281 12.3828V3.00781C16.3281 2.68469 16.5909 2.42188 16.9141 2.42188H35.8203C36.1865 2.42188 36.4844 2.71977 36.4844 3.08594V12.3047C36.4844 12.6709 36.1865 12.9688 35.8203 12.9688C32.9125 12.9688 30.5469 15.3344 30.5469 18.2422Z" fill="url(#paint0_linear_57_451)"/>
<path d="M28.3203 3.59375H18.4766C17.938 3.59375 17.5 4.0318 17.5 4.57031V10.8203C17.5 11.3588 17.938 11.7969 18.4766 11.7969H28.3203C28.8588 11.7969 29.2969 11.3588 29.2969 10.8203V4.57031C29.2969 4.0318 28.8588 3.59375 28.3203 3.59375ZM28.125 10.625H18.6719V4.76562H28.125V10.625Z" fill="url(#paint1_linear_57_451)"/>
<path d="M34.7266 10.625H31.1328C30.8091 10.625 30.5469 10.8873 30.5469 11.2109C30.5469 11.5345 30.8091 11.7969 31.1328 11.7969H34.7266C35.0502 11.7969 35.3125 11.5345 35.3125 11.2109C35.3125 10.8873 35.0502 10.625 34.7266 10.625Z" fill="url(#paint2_linear_57_451)"/>
<path d="M34.7266 8.28125H31.1328C30.8091 8.28125 30.5469 8.54359 30.5469 8.86719C30.5469 9.19078 30.8091 9.45312 31.1328 9.45312H34.7266C35.0502 9.45312 35.3125 9.19078 35.3125 8.86719C35.3125 8.54359 35.0502 8.28125 34.7266 8.28125Z" fill="url(#paint3_linear_57_451)"/>
<path d="M34.7266 5.9375H31.1328C30.8091 5.9375 30.5469 6.19984 30.5469 6.52344C30.5469 6.84703 30.8091 7.10938 31.1328 7.10938H34.7266C35.0502 7.10938 35.3125 6.84703 35.3125 6.52344C35.3125 6.19984 35.0502 5.9375 34.7266 5.9375Z" fill="url(#paint4_linear_57_451)"/>
<path d="M34.7266 3.59375H31.1328C30.8091 3.59375 30.5469 3.85609 30.5469 4.17969C30.5469 4.50328 30.8091 4.76562 31.1328 4.76562H34.7266C35.0502 4.76562 35.3125 4.50328 35.3125 4.17969C35.3125 3.85609 35.0502 3.59375 34.7266 3.59375Z" fill="url(#paint5_linear_57_451)"/>
<defs>
<linearGradient id="paint0_linear_57_451" x1="20" y1="1.25" x2="20" y2="38.75" gradientUnits="userSpaceOnUse">
<stop stop-color="#E8C87E"/>
<stop offset="1" stop-color="#AB8447"/>
</linearGradient>
<linearGradient id="paint1_linear_57_451" x1="23.3984" y1="3.59375" x2="23.3984" y2="11.7969" gradientUnits="userSpaceOnUse">
<stop stop-color="#E8C87E"/>
<stop offset="1" stop-color="#AB8447"/>
</linearGradient>
<linearGradient id="paint2_linear_57_451" x1="32.9297" y1="10.625" x2="32.9297" y2="11.7969" gradientUnits="userSpaceOnUse">
<stop stop-color="#E8C87E"/>
<stop offset="1" stop-color="#AB8447"/>
</linearGradient>
<linearGradient id="paint3_linear_57_451" x1="32.9297" y1="8.28125" x2="32.9297" y2="9.45312" gradientUnits="userSpaceOnUse">
<stop stop-color="#E8C87E"/>
<stop offset="1" stop-color="#AB8447"/>
</linearGradient>
<linearGradient id="paint4_linear_57_451" x1="32.9297" y1="5.9375" x2="32.9297" y2="7.10938" gradientUnits="userSpaceOnUse">
<stop stop-color="#E8C87E"/>
<stop offset="1" stop-color="#AB8447"/>
</linearGradient>
<linearGradient id="paint5_linear_57_451" x1="32.9297" y1="3.59375" x2="32.9297" y2="4.76562" gradientUnits="userSpaceOnUse">
<stop stop-color="#E8C87E"/>
<stop offset="1" stop-color="#AB8447"/>
</linearGradient>
</defs>
</svg>
