<svg width="40" height="40" viewBox="0 0 40 40" fill="none" xmlns="http://www.w3.org/2000/svg">
<path d="M39.4414 7.51947C39.1032 7.37929 38.7138 7.45684 38.4551 7.71558L21.8957 24.275C21.8086 24.3621 21.743 24.4625 21.6988 24.5697C21.6555 24.6745 21.6313 24.7892 21.6306 24.9095C21.6306 24.91 21.6306 24.9104 21.6306 24.9108C21.6306 24.911 21.6306 24.9111 21.6306 24.9111C21.6306 24.9115 21.6306 24.9118 21.6306 24.9121C21.6306 24.9124 21.6306 24.9126 21.6306 24.9129C21.6306 24.9131 21.6306 24.9132 21.6306 24.9135C21.6306 24.9139 21.6306 24.9144 21.6306 24.9149C21.6306 31.0422 16.6458 36.027 10.5186 36.027C5.71656 36.027 1.80995 32.1203 1.80995 27.3184C1.80995 23.5766 4.85412 20.5325 8.59584 20.5325C11.4895 20.5325 13.8435 22.8866 13.8435 25.7802C13.8435 27.9953 12.0414 29.7974 9.82633 29.7974C8.15403 29.7974 6.79357 28.4368 6.79357 26.7646C6.79357 25.5266 7.80081 24.5194 9.03882 24.5194C9.53855 24.5194 9.9438 24.1142 9.9438 23.6144C9.9438 23.1146 9.53855 22.7094 9.03882 22.7094C6.80281 22.7094 4.98362 24.5286 4.98362 26.7646C4.98362 29.4349 7.15602 31.6073 9.82633 31.6073C11.4054 31.6073 12.8397 30.976 13.8902 29.9525C13.9096 29.9361 13.9284 29.9188 13.9467 29.9006L30.5062 13.3412C31.6068 12.2406 32.2129 10.7773 32.2129 9.22082C32.2129 5.32924 29.0469 2.16309 25.1553 2.16309C22.8593 2.16309 20.7006 3.0572 19.0771 4.68073L2.51765 21.2402C2.49602 21.2618 2.47566 21.2844 2.45665 21.3075C0.937828 22.8586 0 24.9812 0 27.3184C0 33.1184 4.71864 37.8369 10.5186 37.8369C14.0651 37.8369 17.2822 36.4011 19.6194 34.0798C19.6469 34.0581 19.6734 34.0346 19.6987 34.0092L36.2152 17.4928C38.6558 15.0521 40 11.8071 40 8.35558C40 7.98951 39.7795 7.65956 39.4414 7.51947ZM20.3569 5.96055C21.6386 4.67892 23.3426 3.97304 25.1552 3.97304C28.0489 3.97304 30.4029 6.32716 30.4029 9.22082C30.4029 10.2939 29.9851 11.3026 29.2262 12.0615L15.6521 25.6356C15.5749 21.8103 12.4393 18.7225 8.59584 18.7225C8.23484 18.7225 7.87855 18.7449 7.52914 18.7883L20.3569 5.96055ZM34.9354 16.213L23.0417 28.1066C23.272 27.2036 23.4069 26.2624 23.4351 25.2954L37.9195 10.811C37.4638 12.8414 36.4427 14.7056 34.9354 16.213Z" fill="url(#paint0_linear_57_448)"/>
<defs>
<linearGradient id="paint0_linear_57_448" x1="20" y1="2.16309" x2="20" y2="37.8369" gradientUnits="userSpaceOnUse">
<stop stop-color="#E8C87E"/>
<stop offset="1" stop-color="#AB8447"/>
</linearGradient>
</defs>
</svg>
