<svg width="40" height="41" viewBox="0 0 40 41" fill="none" xmlns="http://www.w3.org/2000/svg">
<g clip-path="url(#clip0_11_722)">
<path d="M32.5 3H26.2499C26.2494 3 26.2489 3.00008 26.2484 3.00008C25.6777 2.24156 24.7702 1.75 23.75 1.75H22.157C21.7161 0.987656 20.897 0.5 20 0.5C19.103 0.5 18.2839 0.987656 17.843 1.75H16.25C15.2298 1.75 14.3223 2.24156 13.7516 3.00008C13.7511 3.00008 13.7505 3 13.75 3H7.5C5.77688 3 4.375 4.40188 4.375 6.125V37.375C4.375 39.0981 5.77688 40.5 7.5 40.5H32.5C34.2231 40.5 35.625 39.0981 35.625 37.375V6.125C35.625 4.40188 34.2231 3 32.5 3ZM14.375 4.875C14.375 3.84117 15.2162 3 16.25 3H18.2398C18.5043 3 18.7402 2.83352 18.8287 2.58437C19.0061 2.08531 19.4768 1.75 20 1.75C20.5232 1.75 20.9939 2.08531 21.1712 2.58437C21.2598 2.83352 21.4957 3 21.7602 3H23.75C24.7838 3 25.625 3.84117 25.625 4.875V6.75H14.375V4.875ZM34.375 37.375C34.375 38.4088 33.5338 39.25 32.5 39.25H7.5C6.46617 39.25 5.625 38.4088 5.625 37.375V6.125C5.625 5.09117 6.46617 4.25 7.5 4.25H13.1879C13.1467 4.45203 13.125 4.66102 13.125 4.875V7.375C13.125 7.72016 13.4048 8 13.75 8H26.25C26.5952 8 26.875 7.72016 26.875 7.375V4.875C26.875 4.66102 26.8533 4.45203 26.8121 4.25H32.5C33.5338 4.25 34.375 5.09117 34.375 6.125V37.375Z" fill="url(#paint0_linear_11_722)"/>
<path d="M32.5 5.5H28.75C28.4048 5.5 28.125 5.77984 28.125 6.125C28.125 6.47016 28.4048 6.75 28.75 6.75H31.875V36.75H8.125V6.75H11.25C11.5952 6.75 11.875 6.47016 11.875 6.125C11.875 5.77984 11.5952 5.5 11.25 5.5H7.5C7.15484 5.5 6.875 5.77984 6.875 6.125V37.375C6.875 37.7202 7.15484 38 7.5 38H32.5C32.8452 38 33.125 37.7202 33.125 37.375V6.125C33.125 5.77984 32.8452 5.5 32.5 5.5Z" fill="url(#paint1_linear_11_722)"/>
<path d="M20 3C19.8352 3 19.6742 3.06641 19.5578 3.18281C19.4414 3.29922 19.375 3.46016 19.375 3.625C19.375 3.78906 19.4414 3.95078 19.5578 4.06719C19.6742 4.18359 19.8352 4.25 20 4.25C20.1641 4.25 20.3258 4.18359 20.4422 4.06719C20.5586 3.95078 20.625 3.78984 20.625 3.625C20.625 3.46016 20.5586 3.29922 20.4422 3.18281C20.3258 3.06633 20.1641 3 20 3Z" fill="url(#paint2_linear_11_722)"/>
<path d="M10.183 15.058C9.93891 15.3021 9.93891 15.6978 10.183 15.9419L12.058 17.8169C12.1801 17.9389 12.34 17.9999 12.5 17.9999C12.66 17.9999 12.8199 17.9389 12.942 17.8169L16.067 14.6919C16.3111 14.4478 16.3111 14.0521 16.067 13.808C15.8229 13.564 15.4272 13.564 15.1831 13.808L12.5 16.4911L11.067 15.058C10.8229 14.814 10.4271 14.814 10.183 15.058Z" fill="url(#paint3_linear_11_722)"/>
<path d="M16.067 20.683C15.8229 20.439 15.4272 20.439 15.1831 20.683L12.5 23.3661L11.067 21.933C10.8229 21.689 10.4272 21.689 10.1831 21.933C9.93898 22.1771 9.93898 22.5728 10.1831 22.8169L12.0581 24.6919C12.1802 24.8139 12.3401 24.8749 12.5001 24.8749C12.6601 24.8749 12.82 24.8139 12.942 24.6919L16.067 21.5669C16.311 21.3229 16.311 20.9271 16.067 20.683Z" fill="url(#paint4_linear_11_722)"/>
<path d="M15.183 27.558L12.5 30.2411L11.067 28.808C10.8229 28.564 10.4272 28.564 10.1831 28.808C9.93898 29.0521 9.93898 29.4478 10.1831 29.6919L12.0581 31.5669C12.1802 31.6889 12.3401 31.7499 12.5001 31.7499C12.6601 31.7499 12.82 31.6889 12.942 31.5669L16.067 28.4419C16.3112 28.1978 16.3112 27.8021 16.067 27.558C15.8229 27.314 15.4271 27.314 15.183 27.558Z" fill="url(#paint5_linear_11_722)"/>
<path d="M18.75 16.125H29.375C29.7202 16.125 30 15.8452 30 15.5C30 15.1548 29.7202 14.875 29.375 14.875H18.75C18.4048 14.875 18.125 15.1548 18.125 15.5C18.125 15.8452 18.4048 16.125 18.75 16.125Z" fill="url(#paint6_linear_11_722)"/>
<path d="M18.75 23H29.375C29.7202 23 30 22.7202 30 22.375C30 22.0298 29.7202 21.75 29.375 21.75H18.75C18.4048 21.75 18.125 22.0298 18.125 22.375C18.125 22.7202 18.4048 23 18.75 23Z" fill="url(#paint7_linear_11_722)"/>
<path d="M18.75 29.875H29.375C29.7202 29.875 30 29.5952 30 29.25C30 28.9048 29.7202 28.625 29.375 28.625H18.75C18.4048 28.625 18.125 28.9048 18.125 29.25C18.125 29.5952 18.4048 29.875 18.75 29.875Z" fill="url(#paint8_linear_11_722)"/>
</g>
<defs>
<linearGradient id="paint0_linear_11_722" x1="20" y1="0.5" x2="20" y2="40.5" gradientUnits="userSpaceOnUse">
<stop stop-color="#E8C87E"/>
<stop offset="1" stop-color="#AB8447"/>
</linearGradient>
<linearGradient id="paint1_linear_11_722" x1="20" y1="5.5" x2="20" y2="38" gradientUnits="userSpaceOnUse">
<stop stop-color="#E8C87E"/>
<stop offset="1" stop-color="#AB8447"/>
</linearGradient>
<linearGradient id="paint2_linear_11_722" x1="20" y1="3" x2="20" y2="4.25" gradientUnits="userSpaceOnUse">
<stop stop-color="#E8C87E"/>
<stop offset="1" stop-color="#AB8447"/>
</linearGradient>
<linearGradient id="paint3_linear_11_722" x1="13.125" y1="13.625" x2="13.125" y2="17.9999" gradientUnits="userSpaceOnUse">
<stop stop-color="#E8C87E"/>
<stop offset="1" stop-color="#AB8447"/>
</linearGradient>
<linearGradient id="paint4_linear_11_722" x1="13.125" y1="20.5" x2="13.125" y2="24.8749" gradientUnits="userSpaceOnUse">
<stop stop-color="#E8C87E"/>
<stop offset="1" stop-color="#AB8447"/>
</linearGradient>
<linearGradient id="paint5_linear_11_722" x1="13.1251" y1="27.375" x2="13.1251" y2="31.7499" gradientUnits="userSpaceOnUse">
<stop stop-color="#E8C87E"/>
<stop offset="1" stop-color="#AB8447"/>
</linearGradient>
<linearGradient id="paint6_linear_11_722" x1="24.0625" y1="14.875" x2="24.0625" y2="16.125" gradientUnits="userSpaceOnUse">
<stop stop-color="#E8C87E"/>
<stop offset="1" stop-color="#AB8447"/>
</linearGradient>
<linearGradient id="paint7_linear_11_722" x1="24.0625" y1="21.75" x2="24.0625" y2="23" gradientUnits="userSpaceOnUse">
<stop stop-color="#E8C87E"/>
<stop offset="1" stop-color="#AB8447"/>
</linearGradient>
<linearGradient id="paint8_linear_11_722" x1="24.0625" y1="28.625" x2="24.0625" y2="29.875" gradientUnits="userSpaceOnUse">
<stop stop-color="#E8C87E"/>
<stop offset="1" stop-color="#AB8447"/>
</linearGradient>
<clipPath id="clip0_11_722">
<rect width="40" height="40" fill="white" transform="translate(0 0.5)"/>
</clipPath>
</defs>
</svg>
