<svg width="50" height="60" viewBox="0 0 50 60" fill="none" xmlns="http://www.w3.org/2000/svg">
<path d="M28.8889 32.8302H25.5556V35.0943H28.8889V32.8302Z" fill="url(#paint0_linear_1932_58)"/>
<path d="M45.5556 57.7358V1.13208C45.5556 0.993962 45.5233 0.861509 45.4767 0.734717C45.4678 0.712075 45.4622 0.689434 45.4522 0.666792C45.4011 0.552453 45.3322 0.449434 45.2467 0.356604C45.2289 0.338491 45.2111 0.322641 45.1922 0.304528C45.16 0.275094 45.1322 0.241132 45.0978 0.215094C45.0322 0.166415 44.9622 0.129057 44.8889 0.0962264C44.8833 0.0939623 44.8789 0.089434 44.8733 0.0871698C44.75 0.0350943 44.6189 0.0124528 44.4856 0.00792453C44.4711 0.00792453 44.4589 0 44.4444 0H6.66667C6.05222 0 5.55556 0.50717 5.55556 1.13208V57.7358H0V60H50V57.7358H45.5556ZM23.3333 53.4113V9.31359L43.3333 2.69094V57.4868L23.3333 53.4113ZM7.77778 2.26415H37.43L21.8778 7.41396C21.4211 7.56566 21.1111 8.00038 21.1111 8.49057V54.3396C21.1111 54.8796 21.4856 55.3438 22.0044 55.4491L33.2233 57.7358H7.77778V2.26415Z" fill="url(#paint1_linear_1932_58)"/>
<defs>
<linearGradient id="paint0_linear_1932_58" x1="25" y1="0" x2="25" y2="60" gradientUnits="userSpaceOnUse">
<stop stop-color="#E8C87E"/>
<stop offset="1" stop-color="#AB8447"/>
</linearGradient>
<linearGradient id="paint1_linear_1932_58" x1="25" y1="0" x2="25" y2="60" gradientUnits="userSpaceOnUse">
<stop stop-color="#E8C87E"/>
<stop offset="1" stop-color="#AB8447"/>
</linearGradient>
</defs>
</svg>
